<svg width="123" height="116" viewBox="0 0 123 116" fill="none" xmlns="http://www.w3.org/2000/svg">
<g clip-path="url(#clip0_201_1386)">
<path d="M71.0449 4.22588C71.4506 1.78722 73.5647 0 76.0418 0C77.6433 0 79.1381 0.749375 80.0991 2.02289L83.7079 6.8125H94.8334C97.5454 6.8125 100.172 7.88973 102.094 9.80574L105.916 13.625H117.875C120.715 13.625 123 15.9136 123 18.7344V23.8438C123 33.2535 115.355 40.875 105.916 40.875H91.1178L90.0288 47.3682L66.1121 33.7432L71.0449 4.22588V4.22588ZM95.6663 13.625C93.7871 13.625 92.2496 15.1493 92.2496 17.0312C92.2496 18.9132 93.7871 20.4375 95.6663 20.4375C97.5454 20.4375 99.0829 18.9132 99.0829 17.0312C99.0829 15.1493 97.5454 13.625 95.6663 13.625ZM88.8329 54.5213V102.188C88.8329 105.956 85.7793 109 81.9996 109H75.1663C71.3866 109 68.3329 105.956 68.3329 102.188V77.6625C63.0157 80.2811 57.3996 81.75 51.2496 81.75C45.0996 81.75 39.2913 80.2811 34.1663 77.6625V102.188C34.1663 105.956 31.1126 109 27.3329 109H20.4996C16.7263 109 13.6663 105.956 13.6663 102.188V53.1801C7.52266 50.8596 2.69875 45.665 1.03228 39.0229L0.203734 35.723C-0.711719 32.0613 1.51445 28.357 5.17584 27.2713C8.83594 26.5475 12.5473 28.7615 13.4634 32.402L14.2919 35.723C15.0521 38.7461 17.7855 40.6834 20.9203 40.6834H64.8735L88.8329 54.5213Z" fill="black"/>
</g>
<path d="M28.3143 113H22.9386C20.2221 113.001 17.5646 112.247 15.2929 110.831C13.0213 109.414 11.2346 107.397 10.1527 105.028C9.0708 102.659 8.74091 100.04 9.2036 97.495C9.6663 94.9496 10.9014 92.5885 12.7569 90.7019L16.9615 86.4128C18.9915 84.3442 20.0976 81.6068 20.0464 78.7778C19.9952 75.9488 18.7908 73.2492 16.6871 71.2481L12.5565 67.3203C12.076 66.8472 11.8101 66.2136 11.8161 65.556C11.8221 64.8983 12.0995 64.2692 12.5886 63.8042C13.0776 63.3392 13.7392 63.0754 14.4308 63.0696C15.1224 63.0639 15.7887 63.3167 16.2862 63.7736L20.4116 67.7015C23.4818 70.622 25.2395 74.5619 25.3143 78.6908C25.3891 82.8196 23.7751 86.8147 20.8125 89.8341L16.608 94.1231C15.4581 95.2967 14.6934 96.7638 14.4075 98.3446C14.1216 99.9254 14.3269 101.551 14.9984 103.023C15.6699 104.494 16.7783 105.747 18.1878 106.628C19.5972 107.51 21.2465 107.981 22.9333 107.984H25.5868C25.5763 106.96 25.5816 105.676 25.629 104.211C25.7662 100.399 26.2093 95.2669 27.4755 90.0949C28.7416 84.9531 29.9912 78.6846 33.6207 74.541C36.8545 70.8489 42.1201 69.081 47.902 68.464L50.5593 53.1463C50.5635 50.2383 51.1375 49.298 50.5593 46.5493C52.2937 47.6488 54.1129 52.0494 57.171 52.0468C59.8509 52.0468 60.3876 42.8964 60.3876 45.4498L63.2783 49.8179L68.7931 52.0468C72.2749 52.0468 71.7207 53.1858 73.5566 56V60C69.5 64 73.5566 60 68.7931 68.464L73.5566 105.204C73.5566 109.509 69.8901 113 65.3638 113H62.4465V105.204C62.4472 103.487 62.0919 101.785 61.4011 100.198C60.7102 98.611 59.6973 97.1687 58.4201 95.9538C57.143 94.7388 55.6266 93.7751 53.9577 93.1175C52.2887 92.46 50.4999 92.1216 48.6933 92.1216H44.0615C43.3619 92.1216 42.691 92.3858 42.1963 92.8562C41.7017 93.3266 41.4238 93.9646 41.4238 94.6298C41.4238 95.295 41.7017 95.933 42.1963 96.4034C42.691 96.8737 43.3619 97.138 44.0615 97.138H48.6933C53.3727 97.138 57.171 100.75 57.171 105.204V113H28.3143Z" fill="white"/>
<defs>
<clipPath id="clip0_201_1386">
<rect width="123" height="109" fill="white"/>
</clipPath>
</defs>
</svg>
